Coordinates
version=1
nRows=17
nColumns=36
inDegrees=yes

Units are S.I. units (second, meters, Newtons, ...)
If the header above contains a line with 'inDegrees', this indicates whether rotational values are in degrees (yes) or radians (no).

endheader
time	pelvis_tilt	pelvis_list	pelvis_rotation	pelvis_tx	pelvis_ty	pelvis_tz	hip_flexion_r	hip_adduction_r	hip_rotation_r	knee_angle_r	knee_angle_r_beta	ankle_angle_r	subtalar_angle_r	mtp_angle_r	hip_flexion_l	hip_adduction_l	hip_rotation_l	knee_angle_l	knee_angle_l_beta	ankle_angle_l	subtalar_angle_l	mtp_angle_l	lumbar_extension	lumbar_bending	lumbar_rotation	arm_flex_r	arm_add_r	arm_rot_r	elbow_flex_r	pro_sup_r	arm_flex_l	arm_add_l	arm_rot_l	elbow_flex_l	pro_sup_l
      0.00000000	     -9.12113762	     -0.72014188	      1.60213623	      0.31420639	      1.01082781	     -0.08794713	      2.28795394	      0.24780052	     -4.05626157	      0.27780487	      0.00484861	      6.55067389	      1.09109584	     -5.76061779	      8.37703296	     -3.28981187	      1.59307183	     14.99835794	      0.26177073	      0.12633751	     -9.55457592	     -5.76061779	      0.95669625	     -0.65441511	      1.44962269	    -34.78850390	    -35.90418199	     23.46228587	     89.67496184	     80.43472648	    -22.24753635	    -41.05971291	     32.18863807	     86.71353964	     80.59041336
      0.01666670	     -9.39377579	     -1.22177388	      1.85021750	      0.31239810	      1.00733995	     -0.08953490	      1.99607036	      0.58960449	     -3.00326296	      0.28128329	      0.00490932	      7.70990446	      2.82144384	     -5.94083822	      8.35498039	     -3.89288610	      3.14335375	     14.77932451	      0.25794787	      0.79334924	     -8.36489988	     -5.94083822	      0.82882052	     -0.64106856	     -0.08050487	    -37.46392351	    -37.57040849	     26.72173294	     95.70497490	     81.68511468	    -23.84725457	    -43.74346071	     35.20521768	     88.29357021	     80.43857722
      0.03333330	     -9.91296988	     -1.18805785	      2.03278394	      0.31132203	      1.00584561	     -0.09045078	      2.40407689	      0.43606670	     -1.75873142	      0.31572224	      0.00551039	      8.50842557	      1.77621357	     -6.11561850	      9.43033979	     -3.78000667	      4.08256141	     15.64960084	      0.27313706	      2.79336737	     -8.47247067	     -6.11561850	      0.51051968	     -0.88341695	     -0.93614709	    -36.40655169	    -36.57276143	     26.48036935	     94.92429620	     81.40065324	    -23.27882030	    -43.83418679	     35.87312128	     86.18283230	     79.77484240
      0.05000000	    -10.39525444	     -1.09221336	      2.04028939	      0.31083161	      1.00411112	     -0.09028433	      2.89613199	      0.11985735	     -0.96679407	      0.33945059	      0.00592453	      9.01495259	      2.22283566	     -6.27379389	      9.63018881	     -3.69804853	      4.82656101	     14.90292065	      0.26010503	      3.70734992	     -7.70349972	     -6.27379389	      0.55291598	     -1.03111915	     -1.33419229	    -36.57773502	    -36.56255571	     25.45354626	     95.87934648	     81.33091653	    -23.68865811	    -44.34346983	     36.24323245	     87.12608066	     79.32651864
      0.06666670	    -11.06169796	     -0.97156480	      1.88252185	      0.31058430	      1.00421587	     -0.08991147	      3.59317926	     -0.16237856	     -0.22350303	      0.36437874	      0.00635961	      9.74636168	      2.34286909	     -6.38172790	     10.05888595	     -3.64654283	      4.95088841	     14.16240016	      0.24718051	      4.58959193	     -7.08128965	     -6.38172790	      1.25509969	     -1.20268366	     -1.33374136	    -36.47459081	    -36.64275952	     24.94526886	     96.16406889	     80.73851915	    -24.23466028	    -44.28103656	     36.37544221	     87.53847744	     78.71317473
      0.08333330	    -10.65965760	     -0.92924344	      1.72576392	      0.31031854	      1.00839935	     -0.08875730	      3.09988323	     -0.29191027	     -0.08545636	      0.35709797	      0.00623254	      9.94934524	      2.86521993	     -6.47106281	      9.11147734	     -3.81994796	      4.55946276	     12.96338070	      0.22625368	      4.99430780	     -6.24579205	     -6.47106281	      0.53185432	     -1.26536641	     -1.25409816	    -36.01935697	    -36.85708710	     24.51220064	     96.57257019	     80.87777879	    -24.66207159	    -44.27182471	     36.10956767	     88.68162209	     78.47394496
      0.10000000	    -10.72129107	     -0.87873662	      1.54364789	      0.31002127	      1.00847957	     -0.08866955	      3.08634107	     -0.40185318	      0.20365208	      0.33953327	      0.00592597	     10.24875359	      3.13645399	     -6.53914751	      8.78123939	     -3.92893963	      3.99399858	     12.16312710	      0.21228662	      5.13459273	     -5.75219427	     -6.53914751	      0.61669913	     -1.36160820	     -1.10178098	    -35.33325578	    -37.17152545	     24.58427552	     96.50518474	     80.89936326	    -24.74226499	    -44.00972718	     35.99146347	     88.99882340	     78.25060736
      0.11666670	    -10.72896750	     -0.91083687	      1.52747077	      0.31004612	      1.00785121	     -0.08859658	      3.06210875	     -0.41959726	      0.28689680	      0.33957457	      0.00592669	     10.48249324	      3.49601934	     -6.79628674	      8.49783538	     -4.07187194	      3.59972868	     11.63398943	      0.20305142	      5.51029656	     -5.03482367	     -6.79628674	      0.60184916	     -1.45081482	     -1.92085494	    -33.56661292	    -38.14657600	     26.06522372	     96.16669424	     83.26296366	    -25.87880868	    -43.46400547	     34.55288611	     89.36216871	     79.23630299
      0.13333330	    -11.19992972	     -0.92899919	      1.43070391	      0.31009337	      1.00758869	     -0.08861064	      3.56584862	     -0.42796419	      0.59174497	      0.32398797	      0.00565466	     10.56696800	      3.49443192	     -6.87575763	      8.74999322	     -4.16297606	      3.21711269	     11.23895716	      0.19615681	      5.63661404	     -4.68921861	     -6.87575763	      1.34305345	     -1.42970659	     -1.85925721	    -33.20022052	    -38.29282951	     26.04082876	     95.77130721	     81.93248687	    -25.81421471	    -43.27956104	     34.69760226	     89.29123009	     78.20997421
      0.15000000	    -10.64887308	     -0.92999625	      1.36324096	      0.30975777	      1.00792386	     -0.08867269	      2.95373826	     -0.43866192	      0.65451252	      0.30831997	      0.00538120	     10.75742171	      3.74091481	     -6.94323998	      7.87981791	     -4.23669021	      2.93290964	     10.73033947	      0.18727975	      5.83516650	     -4.55961473	     -6.94323998	      0.67062436	     -1.37817369	     -1.78115390	    -32.32000752	    -38.54568424	     26.36078329	     95.38211182	     81.17323737	    -25.42087788	    -43.30535494	     34.96691099	     89.36007256	     77.74717048
      0.16666670	    -10.68010300	     -0.89335490	      1.28526106	      0.30977391	      1.00821587	     -0.08864473	      2.96736883	     -0.49355999	      0.84715365	      0.30041862	      0.00524329	     10.76525519	      3.79980300	     -6.99000301	      7.70792635	     -4.25356615	      2.63908067	     10.39164125	      0.18136835	      6.00373511	     -4.31662952	     -6.99000301	      0.76548494	     -1.36688390	     -1.68912089	    -31.82574629	    -38.56294228	     26.36863166	     94.86037848	     80.64713534	    -25.38158829	    -43.16603195	     34.91218120	     89.15650788	     77.45593141
      0.18333330	    -10.47053742	     -0.88427187	      1.22967695	      0.30973271	      1.00802284	     -0.08860130	      2.75124816	     -0.51488507	      0.99831762	      0.29910274	      0.00522033	     10.91710179	      3.92195744	     -7.12602006	      7.29251492	     -4.28383639	      2.51725361	     10.12993219	      0.17680067	      6.30204400	     -4.16872453	     -7.12602006	      0.78751826	     -1.31494989	     -1.79735408	    -31.25666413	    -38.44571073	     26.56579791	     94.10659413	     78.41829338	    -25.50864570	    -42.89634675	     34.62319813	     88.91617251	     75.85150864
      0.20000000	    -10.22441465	     -0.89682505	      1.25033982	      0.30977306	      1.00460523	     -0.08961298	      2.46709899	     -0.51521950	      1.18213294	      0.32231461	      0.00562545	     10.97554692	      3.73756975	     -7.15191734	      6.90741960	     -4.31035064	      2.42975914	     10.07797503	      0.17589385	      6.51236850	     -4.13784560	     -7.15191734	      0.63935264	     -1.24767295	     -1.88662236	    -31.12794685	    -38.38327051	     26.11639101	     93.96644116	     78.31344376	    -25.86552949	    -42.79210154	     34.09586512	     88.95335681	     75.93819638
      0.21666670	    -10.13703912	     -0.91769852	      1.26979910	      0.30996656	      1.00449940	     -0.08965583	      2.36553185	     -0.52667494	      1.28555252	      0.35092697	      0.00612483	     10.97647591	      3.68027986	     -7.18698656	      6.73889182	     -4.34690630	      2.31926550	     10.05276883	      0.17545392	      6.81617221	     -3.96901454	     -7.18698656	      0.56000715	     -1.15614755	     -1.96470566	    -30.97604195	    -38.19345975	     25.69460448	     93.79334539	     78.05006325	    -26.18607897	    -42.58954227	     33.49745306	     88.83225057	     75.89559104
      0.23333330	    -10.10594590	     -0.89489410	      1.22001788	      0.31008948	      1.00521902	     -0.08954148	      2.32325771	     -0.57502141	      1.49779750	      0.37352715	      0.00651928	     10.89050041	      3.56991020	     -7.26518994	      6.61444668	     -4.34470371	      2.34481610	     10.01482115	      0.17479160	      7.13467344	     -3.85418098	     -7.26518994	      0.50217509	     -1.15971819	     -2.48226257	    -30.27500372	    -38.22778532	     25.58107383	     93.29428462	     80.83018238	    -27.52992580	    -41.94548828	     31.24948414	     88.69661067	     79.87118264
      0.25000000	    -10.03284436	     -0.83263315	      1.16867908	      0.31028695	      1.00527112	     -0.08958512	      2.21562340	     -0.65288106	      1.60157709	      0.39884663	      0.00696119	     11.00263509	      3.57790625	     -7.29577605	      6.49029401	     -4.29375936	      2.20793140	     10.04727331	      0.17535800	      7.35178270	     -3.72073869	     -7.29577605	      0.46314034	     -1.17428546	     -2.55665277	    -30.03356545	    -37.84843519	     25.12674152	     92.59920660	     79.78985848	    -27.54058545	    -41.64548209	     31.01359949	     87.96145263	     79.04746320
      0.26666670	    -10.01726555	     -0.72229251	      1.03388466	      0.31017772	      1.01044680	     -0.08868337	      2.18014306	     -0.76552857	      1.71770212	      0.38690217	      0.00675272	     11.08955045	      3.69345536	     -7.30492075	      6.59182787	     -4.19109625	      2.12664957	     10.26351606	      0.17913215	      7.45669308	     -3.56555269	     -7.30492075	      0.36774732	     -1.24350094	     -2.53346634	    -29.74761204	    -37.32543097	     24.61556181	     91.51353898	     79.54052656	    -27.45956372	    -41.25011352	     30.61396434	     86.94377197	     78.94134031
